<?xml version="1.0" standalone="no"?>
<!DOCTYPE svg PUBLIC "-//W3C//DTD SVG 20010904//EN"
 "http://www.w3.org/TR/2001/REC-SVG-20010904/DTD/svg10.dtd">
<svg version="1.0" xmlns="http://www.w3.org/2000/svg"
 width="225.000000pt" height="225.000000pt" viewBox="0 0 225.000000 225.000000"
 preserveAspectRatio="xMidYMid meet">

<g transform="translate(0.000000,225.000000) scale(0.100000,-0.100000)"
fill="#000000" stroke="none">
<path d="M1035 2099 c-227 -18 -437 -117 -605 -288 -137 -137 -225 -303 -266
-495 -17 -82 -19 -281 -4 -365 33 -185 122 -359 255 -500 89 -94 169 -153 279
-206 92 -44 196 -80 196 -67 0 4 -18 71 -39 150 l-39 143 24 62 24 63 -29 85
-28 85 26 11 c14 6 49 19 76 30 l50 19 3 55 c3 54 3 54 -56 114 -58 60 -92
127 -92 182 0 19 -5 23 -30 23 -49 0 -80 38 -80 99 0 42 4 53 26 70 15 12 40
21 55 21 28 0 29 2 29 49 l0 48 42 -20 c91 -45 219 -31 308 34 46 33 48 33
145 -1 35 -13 76 -20 100 -18 l40 3 -3 -47 c-4 -47 -3 -48 26 -48 16 0 41 -9
56 -21 22 -18 26 -28 26 -74 0 -46 -4 -56 -26 -74 -15 -12 -40 -21 -55 -21
-24 0 -29 -4 -29 -23 0 -55 -34 -122 -92 -181 -56 -58 -58 -62 -58 -113 0 -52
0 -53 44 -73 25 -11 49 -20 53 -20 5 0 21 -5 35 -12 l25 -12 -28 -85 -29 -85
24 -63 24 -62 -39 -143 c-21 -79 -39 -146 -39 -150 0 -13 104 23 196 67 264
127 454 369 523 663 38 162 28 372 -25 528 -51 150 -138 287 -249 393 -212
202 -473 293 -770 270z"/>
<path d="M955 738 l-7 -83 55 -50 c78 -71 83 -92 67 -288 -14 -179 -15 -177
55 -177 70 0 69 -2 54 173 -16 197 -10 221 68 292 l55 50 -8 85 -9 85 -76 -72
c-41 -40 -80 -73 -85 -73 -5 0 -41 32 -79 70 -38 39 -72 70 -76 70 -4 0 -10
-37 -14 -82z"/>
</g>
</svg>
